<svg width="198" height="36" viewBox="0 0 198 36" fill="none" xmlns="http://www.w3.org/2000/svg">
<g clip-path="url(#clip0_749_2326)">
<path d="M144.658 25.147H141.387C141.289 25.1506 141.206 25.0739 141.203 24.9758C141.203 24.971 141.203 24.9663 141.203 24.9615V19.7799C141.19 19.6904 141.252 19.6074 141.342 19.5947C141.357 19.5925 141.372 19.5925 141.387 19.5945H144.658C146.665 19.5945 147.776 20.7375 147.776 22.372C147.776 24.0382 146.665 25.1495 144.658 25.1495V25.147ZM144.352 10.7083C146.297 10.7083 147.378 11.7573 147.378 13.3614C147.378 14.9654 146.297 16.0461 144.352 16.0461H141.387C141.298 16.059 141.216 15.9974 141.203 15.9085C141.201 15.8931 141.201 15.8774 141.203 15.862V10.8937C141.19 10.8042 141.252 10.7212 141.342 10.7085C141.357 10.7064 141.372 10.7063 141.387 10.7083H144.352ZM148.859 17.4965C150.403 16.5097 151.329 14.9666 151.329 12.9613C151.329 9.6593 149.043 7.12946 144.851 7.12946H137.806C137.609 7.1217 137.443 7.27506 137.435 7.472C137.435 7.47931 137.435 7.48664 137.435 7.49395V28.3588C137.428 28.5557 137.582 28.7212 137.779 28.7284C137.788 28.7287 137.797 28.7287 137.806 28.7284H145.123C149.442 28.7284 151.728 26.1058 151.728 22.6501C151.728 20.3972 150.647 18.7004 148.856 17.7441C148.729 17.6514 148.729 17.5587 148.856 17.4901L148.859 17.4965Z" fill="#E40521"/>
<path d="M184.925 28.2153C184.925 28.2153 184.297 24.0408 183.998 22.2806L184.125 22.2539C184.334 22.2097 184.468 22.0043 184.424 21.7949C184.416 21.754 184.4 21.7147 184.379 21.6786C183.674 20.4479 183.419 18.9239 183.419 17.3999C183.418 16.4924 183.569 15.591 183.865 14.7329C183.881 14.6847 183.898 14.6377 183.915 14.5894L183.951 14.4866C184.282 13.7438 184.497 12.9543 184.586 12.146C184.681 11.0492 184.502 9.94602 184.065 8.93539L184.008 8.83379C184.271 8.55912 184.316 8.14158 184.116 7.81779C183.884 7.41647 183.406 7.25645 183.049 7.46219C183.012 7.48378 182.922 7.54601 182.884 7.57522C182.819 7.52696 182.781 7.50283 182.781 7.50283C182.781 7.50283 182.681 7.43679 182.594 7.39234C182.594 7.39234 182.561 7.37583 182.561 7.37456C182.187 7.20893 181.781 7.12453 181.371 7.12691C181.166 7.12684 180.962 7.1477 180.761 7.18914C180.343 7.27631 179.949 7.45309 179.605 7.7073C179.486 7.74373 179.364 7.76715 179.24 7.77715L178.757 7.80001C178.53 7.8089 178.27 7.80001 178.27 7.80001C178.159 7.80068 178.068 7.89029 178.066 8.00194C178.066 8.0121 178.141 8.67504 178.141 8.67758C178.15 8.84262 178.233 8.99458 178.368 9.09033L178.385 9.10176C178.418 9.11947 178.444 9.14699 178.461 9.1805C178.507 9.31353 178.591 9.43066 178.701 9.51832C178.734 9.53864 178.786 9.52848 178.795 9.49165C178.888 9.1297 179.104 9.51959 179.514 9.29734C179.619 9.24019 179.675 9.49673 179.631 9.60849L179.593 9.70501C179.508 9.92087 179.314 10.0749 179.085 10.1089C178.903 10.1355 178.799 10.1533 178.801 10.1787C178.823 10.3832 178.801 10.5597 179.007 10.6867C179.036 10.7028 179.066 10.716 179.097 10.7261C179.416 10.8099 180.347 11.1668 179.165 12.5625C179.094 12.6435 179.027 12.7283 178.965 12.8165C178.94 12.852 178.918 12.8898 178.9 12.9295L178.875 12.9791L175.318 11.6494C175.195 11.592 175.088 11.5047 175.007 11.3954L174.656 10.7934C174.492 10.5167 174.196 10.3454 173.874 10.3413C173.709 10.3283 173.543 10.3283 173.379 10.3413C173.273 10.3413 173.212 10.3718 173.189 10.434C173.16 10.5871 173.188 10.7454 173.267 10.8798L173.572 11.4398C173.598 11.4792 173.983 12.3403 173.983 12.3403C174.022 12.4461 174.088 12.5399 174.175 12.612L177.819 15.3679L173.972 17.2869C173.861 17.347 173.731 17.3603 173.61 17.3237L173.266 17.2196C172.63 16.9389 172.162 17.1345 171.884 17.3669L171.776 17.4698C171.7 17.5373 171.694 17.653 171.762 17.7281C171.78 17.7483 171.803 17.7641 171.828 17.7746C171.828 17.7746 172.436 18.1315 172.569 18.2229L173.515 18.783C173.662 18.868 173.835 18.896 174.001 18.8617L177.737 18.1086C177.798 18.9949 177.951 19.8724 178.193 20.7273C177.205 21.6965 176.539 22.9466 176.288 24.3075C176.107 25.3158 176.16 26.229 176.441 27.3034C175.919 27.3326 175.416 27.4088 174.998 27.6996C174.58 27.9905 174.518 28.4693 174.516 28.7156L177.437 28.722H177.684C177.864 28.7121 178.018 28.587 178.065 28.4121C178.091 28.3129 178.109 28.2119 178.119 28.1098C178.212 27.3298 178.444 26.5727 178.804 25.8746C179.117 25.2894 179.508 24.749 179.966 24.2681C180.856 25.4945 181.978 26.5343 183.269 27.3288C182.847 27.3575 182.434 27.4684 182.055 27.6552C181.678 27.8819 181.448 28.29 181.45 28.7296H184.472C184.672 28.73 184.85 28.6029 184.915 28.4134C184.921 28.3942 184.926 28.3747 184.93 28.355C184.934 28.3408 184.936 28.3263 184.937 28.3118C184.937 28.2793 184.933 28.2468 184.925 28.2153Z" fill="#1D1D1B"/>
<path d="M0 0.000854492V36.0003H198V0.000854492H0ZM125.985 35.2802H0.720244V0.720942H125.985V35.2802ZM161.632 35.2815H126.705V0.720942H161.638L161.632 35.2815ZM197.28 35.2815H162.348V0.720942H197.28V35.2815Z" fill="black"/>
<path d="M9.51691 24.5907V12.8549C9.51691 12.7333 9.58632 12.6465 9.70791 12.6465H13.6843C16.0459 12.6465 17.3308 14.0701 17.3308 15.9278C17.3308 17.0561 16.8099 17.9242 16.0112 18.4276C15.8896 18.497 15.907 18.5839 16.0285 18.6534C16.9488 19.1568 17.5566 20.1117 17.5566 21.379C17.5566 23.3234 16.2716 24.7991 13.8406 24.7991H9.70791C9.58632 24.7991 9.51691 24.7122 9.51691 24.5907ZM11.6353 14.7646V17.577C11.6353 17.6464 11.6701 17.6812 11.7395 17.6812H13.4065C14.5004 17.6812 15.1082 17.0735 15.1082 16.1708C15.1082 15.268 14.5004 14.6603 13.4065 14.6603H11.7395C11.6701 14.6603 11.6353 14.695 11.6353 14.7646ZM11.6353 19.7645V22.6811C11.6353 22.7331 11.6701 22.7852 11.7395 22.7852H13.5801C14.7088 22.7852 15.3339 22.1428 15.3339 21.2228C15.3339 20.3026 14.7088 19.6602 13.5801 19.6602H11.7395C11.6701 19.6602 11.6353 19.6949 11.6353 19.7645Z" fill="black"/>
<path d="M25.6315 12.9069L28.9828 24.5907C29.0175 24.7296 28.9481 24.799 28.8092 24.799H27.0033C26.8991 24.799 26.8123 24.7469 26.7775 24.6428L26.1698 22.4901C26.135 22.3686 26.083 22.3339 25.9962 22.3339H21.5856C21.4988 22.3339 21.4467 22.3686 21.4119 22.4901L20.8042 24.6428C20.7695 24.7469 20.6826 24.799 20.5784 24.799H18.7726C18.6336 24.799 18.5642 24.7296 18.5989 24.5907L21.9502 12.9069C22.0024 12.6986 22.1065 12.6465 22.2802 12.6465H25.3015C25.4752 12.6465 25.5794 12.6986 25.6315 12.9069ZM20.5784 9.88616C20.5784 9.1917 21.1689 8.61887 21.8808 8.61887C22.5754 8.61887 23.1657 9.1917 23.1657 9.88616C23.1657 10.6153 22.5754 11.1882 21.8808 11.1882C21.1689 11.1882 20.5784 10.6153 20.5784 9.88616ZM22.1412 20.3373H25.4405C25.51 20.3373 25.5447 20.3026 25.5273 20.2158L23.9819 14.7818C23.9645 14.7124 23.9298 14.6777 23.8777 14.6777H23.704C23.652 14.6777 23.6172 14.7124 23.5999 14.7818L22.0544 20.2158C22.0371 20.3026 22.0718 20.3373 22.1412 20.3373ZM24.3465 9.88616C24.3465 9.1917 24.9195 8.61887 25.6489 8.61887C26.3435 8.61887 26.9165 9.1917 26.9165 9.88616C26.9165 10.6153 26.3435 11.1882 25.6489 11.1882C24.9195 11.1882 24.3465 10.6153 24.3465 9.88616Z" fill="black"/>
<path d="M32.7164 24.799H31.0148C30.8932 24.799 30.8064 24.7122 30.8064 24.5907V12.8549C30.8064 12.7333 30.8932 12.6465 31.0148 12.6465H34.7307C37.3527 12.6465 39.3843 14.2437 39.3843 16.952C39.3843 18.8617 38.3772 20.1985 36.8492 20.806C36.7276 20.8581 36.7102 20.9449 36.7797 21.0318L39.3843 24.5386C39.4885 24.6775 39.4365 24.7991 39.2628 24.7991H37.1791C36.9707 24.7991 36.8839 24.7644 36.7623 24.5733L34.5224 21.4311C34.4182 21.2922 34.3487 21.2575 34.1924 21.2575H33.029C32.9769 21.2575 32.9248 21.2922 32.9248 21.3616V24.5907C32.9248 24.7122 32.838 24.799 32.7164 24.799ZM32.9248 14.7646V19.1394C32.9248 19.1915 32.9596 19.2436 33.029 19.2436H34.6092C36.033 19.2436 37.1617 18.497 37.1617 16.952C37.1617 15.4069 36.033 14.6603 34.6092 14.6603H33.029C32.9596 14.6603 32.9248 14.695 32.9248 14.7646Z" fill="black"/>
<path d="M47.5807 20.1985V18.6187C47.5807 18.497 47.6675 18.4103 47.789 18.4103H53.0504C53.172 18.4103 53.2588 18.4797 53.2588 18.6187C53.1373 22.6463 50.7236 25.1289 47.216 25.1289C43.5869 25.1289 40.8781 22.5422 40.8781 18.7228C40.8781 14.9033 43.5869 12.3167 47.2334 12.3167C49.3345 12.3167 51.123 13.202 52.2169 14.6777C52.3038 14.7992 52.2864 14.8861 52.1822 14.9729L50.7931 16.0145C50.6889 16.1014 50.5847 16.0665 50.4979 15.9624C49.7512 14.9729 48.5878 14.4347 47.2334 14.4347C44.7503 14.4347 43.118 16.2055 43.118 18.7228C43.118 21.2401 44.7677 23.0109 47.216 23.0109C49.074 23.0109 50.3416 22.0734 50.7583 20.5283C50.7757 20.4589 50.741 20.4068 50.6715 20.4068H47.789C47.6675 20.4068 47.5807 20.32 47.5807 20.1985Z" fill="black"/>
<path d="M63.4695 17.0735C63.4695 19.7645 61.6115 21.5005 58.8506 21.5005H57.4789C57.4094 21.5005 57.3746 21.5352 57.3746 21.6047V24.5907C57.3746 24.7122 57.2879 24.799 57.1663 24.799H55.4646C55.343 24.799 55.2562 24.7122 55.2562 24.5907V12.8549C55.2562 12.7333 55.343 12.6465 55.4646 12.6465H58.8506C61.6115 12.6465 63.4695 14.3826 63.4695 17.0735ZM57.4789 19.4866H58.6769C60.3439 19.4866 61.2469 18.6013 61.2469 17.0735C61.2469 15.5458 60.3439 14.6603 58.6769 14.6603H57.4789C57.4267 14.6603 57.3746 14.695 57.3746 14.7646V19.3825C57.3746 19.4519 57.4094 19.4866 57.4789 19.4866Z" fill="black"/>
<path d="M72.2217 12.8549V14.452C72.2217 14.5735 72.1349 14.6603 72.0133 14.6603H69.2003C69.1308 14.6603 69.0961 14.695 69.0961 14.7646V24.5907C69.0961 24.7122 69.0093 24.799 68.8877 24.799H67.186C67.0645 24.799 66.9776 24.7122 66.9776 24.5907V14.7646C66.9776 14.7125 66.9429 14.6603 66.8735 14.6603H64.0604C63.9389 14.6603 63.8521 14.5735 63.8521 14.452V12.8549C63.8521 12.7333 63.9389 12.6465 64.0604 12.6465H72.0133C72.1349 12.6465 72.2217 12.7333 72.2217 12.8549Z" fill="black"/>
<path d="M79.3241 17.6985H83.5609C83.6304 17.6985 83.6651 17.6638 83.6651 17.5944V12.8549C83.6651 12.7333 83.7519 12.6465 83.8735 12.6465H85.5752C85.6967 12.6465 85.7836 12.7333 85.7836 12.8549V24.5907C85.7836 24.7122 85.6967 24.799 85.5752 24.799H83.8735C83.7519 24.799 83.6651 24.7122 83.6651 24.5907V19.7992C83.6651 19.747 83.6304 19.6949 83.5609 19.6949H79.3241C79.2546 19.6949 79.2198 19.7298 79.2198 19.7992V24.5907C79.2198 24.7122 79.133 24.799 79.0115 24.799H77.3098C77.1883 24.799 77.1014 24.7122 77.1014 24.5907V12.8549C77.1014 12.7333 77.1883 12.6465 77.3098 12.6465H79.0115C79.133 12.6465 79.2198 12.7333 79.2198 12.8549V17.5944C79.2198 17.6638 79.2546 17.6985 79.3241 17.6985Z" fill="black"/>
<path d="M90.7848 12.8549V24.5907C90.7848 24.7122 90.698 24.799 90.5764 24.799H88.8747C88.7531 24.799 88.6664 24.7122 88.6664 24.5907V12.8549C88.6664 12.7333 88.7531 12.6465 88.8747 12.6465H90.5764C90.698 12.6465 90.7848 12.7333 90.7848 12.8549Z" fill="black"/>
<path d="M93.8929 12.6465H95.5946C95.7161 12.6465 95.803 12.7333 95.803 12.8549V22.6811C95.803 22.7331 95.8377 22.7852 95.9072 22.7852H99.7968C99.9184 22.7852 100.005 22.872 100.005 22.9935V24.5907C100.005 24.7122 99.9184 24.7991 99.7968 24.7991H93.8929C93.7714 24.7991 93.6846 24.7122 93.6846 24.5907V12.8549C93.6846 12.7333 93.7714 12.6465 93.8929 12.6465Z" fill="black"/>
<path d="M108.219 12.8549V14.452C108.219 14.5735 108.132 14.6603 108.011 14.6603H104.017C103.965 14.6603 103.912 14.695 103.912 14.7646V17.6985C103.912 17.7506 103.947 17.8027 104.017 17.8027H108.011C108.132 17.8027 108.219 17.8895 108.219 18.011V19.6081C108.219 19.7298 108.132 19.8166 108.011 19.8166H104.017C103.965 19.8166 103.912 19.8513 103.912 19.9207V24.5907C103.912 24.7122 103.826 24.7991 103.704 24.7991H102.002C101.881 24.7991 101.794 24.7122 101.794 24.5907V12.8549C101.794 12.7333 101.881 12.6465 102.002 12.6465H108.011C108.132 12.6465 108.219 12.7333 108.219 12.8549Z" fill="black"/>
<path d="M110.685 12.6465H116.988C117.11 12.6465 117.197 12.7333 117.197 12.8549V14.452C117.197 14.5735 117.11 14.6603 116.988 14.6603H112.699C112.647 14.6603 112.595 14.695 112.595 14.7646V17.5596C112.595 17.6291 112.63 17.6638 112.699 17.6638H116.988C117.11 17.6638 117.197 17.7506 117.197 17.8721V19.4519C117.197 19.5734 117.11 19.6602 116.988 19.6602H112.699C112.647 19.6602 112.595 19.6949 112.595 19.7645V22.6811C112.595 22.7331 112.63 22.7852 112.699 22.7852H116.988C117.11 22.7852 117.197 22.872 117.197 22.9935V24.5907C117.197 24.7122 117.11 24.799 116.988 24.799H110.685C110.563 24.799 110.477 24.7122 110.477 24.5907V12.8549C110.477 12.7333 110.563 12.6465 110.685 12.6465Z" fill="black"/>
</g>
<defs>
<clipPath id="clip0_749_2326">
<rect width="198" height="36" fill="white"/>
</clipPath>
</defs>
</svg>
