<svg width="90" height="18" viewBox="0 0 90 18" fill="none" xmlns="http://www.w3.org/2000/svg">
<path fill-rule="evenodd" clip-rule="evenodd" d="M28.267 10.2616C27.6869 11.2592 26.9456 11.7525 25.4845 11.7525C23.7443 11.7525 22.541 10.5511 22.541 8.44871C22.541 6.34635 23.6905 5.17719 25.6779 5.17719C27.0315 5.17719 27.8588 5.78863 28.3208 6.80764L26.7523 7.56924C26.5804 6.97924 26.3117 6.60396 25.6349 6.60396C24.7432 6.60396 24.1955 7.31183 24.1955 8.49161C24.1955 9.65015 24.6896 10.3257 25.6779 10.3257C26.1828 10.3257 26.6342 10.0363 26.8597 9.45709L28.267 10.2616Z" fill="#E1EAF5"/>
<path fill-rule="evenodd" clip-rule="evenodd" d="M29.13 11.6708H30.7001V6.72984H29.13V11.6708ZM29.9151 4.35571C30.4667 4.35571 30.8805 4.64453 30.8805 5.24356C30.8805 5.821 30.4667 6.12042 29.9151 6.12042C29.406 6.12042 28.9814 5.821 28.9814 5.24356C28.9814 4.64453 29.406 4.35571 29.9151 4.35571Z" fill="#E1EAF5"/>
<path fill-rule="evenodd" clip-rule="evenodd" d="M35.5029 11.4207C35.052 11.6466 34.5155 11.7539 33.8717 11.7539C32.8628 11.7539 32.1761 11.2918 32.1761 10.0885V7.88593H31.457V6.66074H32.1867V5.60785L33.775 5.42511V6.66074H35.2453V7.88593H33.7644V9.723C33.7644 10.2389 33.9683 10.4002 34.3546 10.4002C34.6657 10.4002 34.9449 10.2819 35.2345 10.0778L35.5029 11.4207Z" fill="#E1EAF5"/>
<path fill-rule="evenodd" clip-rule="evenodd" d="M38.0812 8.7735C38.3505 9.74517 38.4044 10.3928 38.4044 10.3928H38.4476C38.4476 10.3928 38.5013 9.73428 38.7924 8.7735L39.4391 6.65765H41.1203L39.105 12.0985C38.5231 13.6637 37.8226 13.8905 36.7448 13.8905C36.4431 13.8905 36.0874 13.8364 35.8072 13.7719L36.0551 12.3469C36.2382 12.4655 36.4755 12.5303 36.7126 12.5303C37.1436 12.5303 37.4238 12.3682 37.5962 11.9258L35.7534 6.65765H37.4993L38.0812 8.7735Z" fill="#E1EAF5"/>
<path fill-rule="evenodd" clip-rule="evenodd" d="M43.5521 5.3418V10.2737H45.9086V11.6706H41.9453V5.3418H43.5521Z" fill="#E1EAF5"/>
<path fill-rule="evenodd" clip-rule="evenodd" d="M48.8708 9.14548H50.287L50.1141 8.66211C49.7356 7.60902 49.6059 6.81379 49.6059 6.81379H49.5627C49.5627 6.81379 49.4006 7.61967 49.0438 8.65127L48.8708 9.14548ZM50.7626 10.4885H48.4166L48.0168 11.6706H46.3193L48.6221 5.3418H50.6006L52.9248 11.6706H51.1843L50.7626 10.4885Z" fill="#E1EAF5"/>
<path fill-rule="evenodd" clip-rule="evenodd" d="M55.4553 10.306H56.4712C56.9469 10.306 57.2279 10.1771 57.2279 9.69351C57.2279 9.29589 56.9469 9.1025 56.4712 9.1025H55.4553V10.306ZM56.266 7.94198C56.709 7.94198 56.9902 7.78092 56.9902 7.34033C56.9902 6.86761 56.7199 6.70635 56.2334 6.70635H55.4553V7.94198H56.266ZM57.4657 8.44703C58.4167 8.5868 58.8706 9.1993 58.8706 9.95156C58.8706 10.983 58.1683 11.6706 56.6118 11.6706H53.834V5.3418H56.6334C57.9196 5.3418 58.6006 5.94365 58.6006 6.93207C58.6006 7.71646 58.1573 8.22131 57.4657 8.40406V8.44703Z" fill="#E1EAF5"/>
<path fill-rule="evenodd" clip-rule="evenodd" d="M65.2192 7.94198C65.6588 7.94198 66.0447 7.78092 66.0447 7.25438C66.0447 6.85676 65.8195 6.70635 65.4015 6.70635H64.6723L64.458 7.94198H65.2192ZM64.0398 10.306H65.0476C65.5514 10.306 65.9052 10.1124 65.9052 9.6182C65.9052 9.29589 65.7337 9.1025 65.262 9.1025H64.2542L64.0398 10.306ZM66.2377 8.43639C67.1596 8.57616 67.492 9.15632 67.492 9.76861C67.492 11.0581 66.4735 11.6706 64.9296 11.6706H62.1743L63.2788 5.3418H65.8946C67.1918 5.3418 67.7064 5.9328 67.7064 6.76017C67.7064 7.71626 67.0417 8.28598 66.2485 8.39321L66.2377 8.43639Z" fill="#E1EAF5"/>
<path fill-rule="evenodd" clip-rule="evenodd" d="M71.5789 8.594C71.5897 8.52995 71.6004 8.45512 71.6004 8.36952C71.6004 8.01733 71.4818 7.73977 71.0616 7.73977C70.6303 7.73977 70.3719 8.13486 70.2532 8.59401L71.5789 8.594ZM71.4711 9.91796L73.0016 10.2809C72.7105 11.2844 72.0208 11.7541 70.6196 11.7541C69.1862 11.7541 68.3672 10.9212 68.3672 9.60807C68.3672 7.65437 69.6819 6.57605 71.1262 6.57605C72.5705 6.57605 73.2387 7.44086 73.2387 8.36952C73.2387 8.76481 73.1632 9.14892 73.0232 9.42669H70.0808C69.9515 10.078 70.2208 10.5371 70.749 10.5371C71.1154 10.5371 71.3633 10.3875 71.4711 9.91796Z" fill="#E1EAF5"/>
<path fill-rule="evenodd" clip-rule="evenodd" d="M77.6498 8.50571C76.9379 8.12873 75.9669 8.23661 75.7837 9.28101L75.3629 11.6719H73.7339L74.6077 6.69647H76.0317L75.9994 8.06432C76.3444 7.04105 77.175 6.39497 78.0274 6.6212L77.6498 8.50571Z" fill="#E1EAF5"/>
<path fill-rule="evenodd" clip-rule="evenodd" d="M79.8543 10.0122C79.8107 10.2486 79.8325 10.4527 80.1591 10.4527C80.2569 10.4527 80.355 10.4314 80.4856 10.399L80.2244 11.6134C79.9524 11.6994 79.6364 11.7532 79.3644 11.7532C78.3738 11.7532 77.9819 11.2589 78.1453 10.3022L79.1902 4.52039H80.8341L79.8543 10.0122Z" fill="#E1EAF5"/>
<path fill-rule="evenodd" clip-rule="evenodd" d="M82.9995 4.27429C83.555 4.27429 83.9718 4.56424 83.9718 5.16539C83.9718 5.74507 83.555 6.04585 82.9995 6.04585C82.4864 6.04585 82.0593 5.74507 82.0593 5.16539C82.0593 4.56424 82.4864 4.27429 82.9995 4.27429ZM83.0422 9.93228C82.9995 10.1685 83.0208 10.3723 83.3415 10.3723C83.4376 10.3723 83.5338 10.351 83.662 10.3187L83.4054 11.5319C83.1384 11.6178 82.8285 11.6715 82.5615 11.6715C81.589 11.6715 81.2046 11.1777 81.3648 10.222L81.995 6.65764H83.6085L83.0422 9.93228Z" fill="#E1EAF5"/>
<path fill-rule="evenodd" clip-rule="evenodd" d="M89.3703 9.94488C89.3269 10.1794 89.3486 10.3818 89.6739 10.3818C89.7715 10.3818 89.8692 10.3607 89.9993 10.3286L89.739 11.5333C89.468 11.6185 89.1531 11.6719 88.8821 11.6719C87.8949 11.6719 87.5045 11.1816 87.6673 10.2326L87.9383 8.69741C88.0144 8.2497 87.9276 7.88728 87.4287 7.88728C87.038 7.88728 86.7126 8.22859 86.5715 9.00664L86.105 11.6185H84.4673L85.3459 6.6932H86.7777L86.7994 7.69541C87.114 6.97056 87.5586 6.57605 88.3939 6.57605C89.1858 6.57605 89.6847 7.07715 89.6847 7.83408C89.6847 8.00443 89.6739 8.12179 89.6523 8.2497L89.3703 9.94488Z" fill="#E1EAF5"/>
<path fill-rule="evenodd" clip-rule="evenodd" d="M9.82368 12.6575L6.85254 10.9742L6.9091 3.4499L12.974 0L15.8525 1.63664L15.8407 9.20884L9.82368 12.6575Z" fill="#E1EAF5"/>
<path fill-rule="evenodd" clip-rule="evenodd" d="M7.18342 2.5322L6.22623 3.08248L6.20127 6.42891L2.80384 8.38238L2.75862 14.4663L0 12.8866L0.0560647 5.34756L6.06786 1.89099L7.18342 2.5322Z" fill="#E1EAF5"/>
<path fill-rule="evenodd" clip-rule="evenodd" d="M6.24201 7.23291L6.21089 11.4166L9.84051 13.4902L12.3856 12.0193L12.3819 14.5514L6.41458 18L3.46826 16.3166L3.52435 8.79193L6.24201 7.23291Z" fill="#E1EAF5"/>
</svg>
