<svg width="20" height="20" viewBox="0 0 20 20" fill="none" xmlns="http://www.w3.org/2000/svg">
<mask id="mask0_5693_26724" style="mask-type:alpha" maskUnits="userSpaceOnUse" x="0" y="0" width="20" height="20">
<rect width="20" height="20" fill="#D9D9D9"/>
</mask>
<g mask="url(#mask0_5693_26724)">
<path d="M6.66732 15.0003H13.334V13.3337H6.66732V15.0003ZM6.66732 11.667H13.334V10.0003H6.66732V11.667ZM5.00065 18.3337C4.54232 18.3337 4.14996 18.1705 3.82357 17.8441C3.49718 17.5177 3.33398 17.1253 3.33398 16.667V3.33366C3.33398 2.87533 3.49718 2.48296 3.82357 2.15658C4.14996 1.83019 4.54232 1.66699 5.00065 1.66699H11.6673L16.6673 6.66699V16.667C16.6673 17.1253 16.5041 17.5177 16.1777 17.8441C15.8513 18.1705 15.459 18.3337 15.0007 18.3337H5.00065ZM10.834 7.50033H15.0007L10.834 3.33366V7.50033Z" fill="#D9E4F2"/>
</g>
</svg>
