<svg width="20" height="20" viewBox="0 0 20 20" fill="none" xmlns="http://www.w3.org/2000/svg">
<mask id="mask0_4045_20219" style="mask-type:alpha" maskUnits="userSpaceOnUse" x="0" y="0" width="20" height="20">
<rect width="20" height="20" fill="#D9D9D9"/>
</mask>
<g mask="url(#mask0_4045_20219)">
<path d="M4.20964 18.6459L3.04297 17.4584L5.5013 15H3.6263V13.3334H8.33464V18.0417H6.66797V16.1875L4.20964 18.6459ZM10.0013 18.3334V11.6667H3.33464V3.33335C3.33464 2.87502 3.49783 2.48266 3.82422 2.15627C4.15061 1.82988 4.54297 1.66669 5.0013 1.66669H11.668L16.668 6.66669V16.6667C16.668 17.125 16.5048 17.5174 16.1784 17.8438C15.852 18.1702 15.4596 18.3334 15.0013 18.3334H10.0013ZM10.8346 7.50002H15.0013L10.8346 3.33335V7.50002Z" fill="#3D5275"/>
</g>
</svg>
