<svg width="21" height="20" viewBox="0 0 21 20" fill="none" xmlns="http://www.w3.org/2000/svg">
  <mask id="mask0_2353_24661" style="mask-type:alpha" maskUnits="userSpaceOnUse" x="0" y="0" width="21" height="20">
    <rect x="0.5" width="20" height="20" fill="#D9D9D9"/>
  </mask>
  <g mask="url(#mask0_2353_24661)">
    <path d="M3.83268 16.6666C3.37435 16.6666 2.98199 16.5035 2.6556 16.1771C2.32921 15.8507 2.16602 15.4583 2.16602 15V4.99998C2.16602 4.54165 2.32921 4.14929 2.6556 3.8229C2.98199 3.49651 3.37435 3.33331 3.83268 3.33331H8.83268L10.4993 4.99998H17.166C17.6243 4.99998 18.0167 5.16317 18.3431 5.48956C18.6695 5.81595 18.8327 6.20831 18.8327 6.66665V15C18.8327 15.4583 18.6695 15.8507 18.3431 16.1771C18.0167 16.5035 17.6243 16.6666 17.166 16.6666H3.83268Z" fill="#0C2753"/>
  </g>
</svg>
