<svg width="16" height="16" viewBox="0 0 16 16" fill="none" xmlns="http://www.w3.org/2000/svg">
<mask id="mask0_3104_1249" style="mask-type:alpha" maskUnits="userSpaceOnUse" x="0" y="0" width="16" height="16">
<rect width="16" height="16" fill="#D9D9D9"/>
</mask>
<g mask="url(#mask0_3104_1249)">
<path d="M8.00008 8C7.26675 8 6.63897 7.73889 6.11675 7.21667C5.59453 6.69445 5.33341 6.06667 5.33341 5.33334C5.33341 4.6 5.59453 3.97223 6.11675 3.45001C6.63897 2.92778 7.26675 2.66667 8.00008 2.66667C8.73341 2.66667 9.36119 2.92778 9.88341 3.45001C10.4056 3.97223 10.6667 4.6 10.6667 5.33334C10.6667 6.06667 10.4056 6.69445 9.88341 7.21667C9.36119 7.73889 8.73341 8 8.00008 8ZM2.66675 13.3333V11.4667C2.66675 11.0889 2.76397 10.7417 2.95841 10.425C3.15286 10.1083 3.41119 9.86667 3.73341 9.7C4.4223 9.35556 5.1223 9.09723 5.83341 8.925C6.54453 8.75278 7.26675 8.66667 8.00008 8.66667C8.73341 8.66667 9.45564 8.75278 10.1667 8.925C10.8779 9.09723 11.5779 9.35556 12.2667 9.7C12.589 9.86667 12.8473 10.1083 13.0417 10.425C13.2362 10.7417 13.3334 11.0889 13.3334 11.4667V13.3333H2.66675Z" fill="#0C2753"/>
</g>
</svg>
