<svg xmlns="http://www.w3.org/2000/svg" width="16" height="16" viewBox="0 0 16 16" fill="none">
  <mask id="mask0_3392_32164" style="mask-type:alpha" maskUnits="userSpaceOnUse" x="0" y="0" width="16" height="16">
    <rect width="16" height="16" fill="#D9D9D9"/>
  </mask>
  <g mask="url(#mask0_3392_32164)">
    <path d="M8.0013 8.00002C7.26797 8.00002 6.64019 7.73891 6.11797 7.21669C5.59575 6.69446 5.33464 6.06669 5.33464 5.33335C5.33464 4.60002 5.59575 3.97224 6.11797 3.45002C6.64019 2.9278 7.26797 2.66669 8.0013 2.66669C8.73463 2.66669 9.36241 2.9278 9.88463 3.45002C10.4069 3.97224 10.668 4.60002 10.668 5.33335C10.668 6.06669 10.4069 6.69446 9.88463 7.21669C9.36241 7.73891 8.73463 8.00002 8.0013 8.00002ZM2.66797 13.3334V11.4667C2.66797 11.0889 2.76519 10.7417 2.95964 10.425C3.15408 10.1084 3.41241 9.86669 3.73464 9.70002C4.42352 9.35558 5.12352 9.09724 5.83464 8.92502C6.54575 8.7528 7.26797 8.66669 8.0013 8.66669C8.73463 8.66669 9.45686 8.7528 10.168 8.92502C10.8791 9.09724 11.5791 9.35558 12.268 9.70002C12.5902 9.86669 12.8485 10.1084 13.043 10.425C13.2374 10.7417 13.3346 11.0889 13.3346 11.4667V13.3334H2.66797Z" fill="#E1EAF5"/>
  </g>
</svg>