<svg width="100" height="100" viewBox="0 0 100 100" fill="none" xmlns="http://www.w3.org/2000/svg">
<mask id="mask0_273_285" style="mask-type:alpha" maskUnits="userSpaceOnUse" x="0" y="0" width="100" height="100">
<rect width="100" height="100" fill="#D9D9D9"/>
</mask>
<g mask="url(#mask0_273_285)">
<path d="M8.33301 91.6666V16.6666C8.33301 14.3749 9.14898 12.4131 10.7809 10.7812C12.4129 9.14922 14.3747 8.33325 16.6663 8.33325H83.333C85.6247 8.33325 87.5865 9.14922 89.2184 10.7812C90.8504 12.4131 91.6663 14.3749 91.6663 16.6666V66.6666C91.6663 68.9583 90.8504 70.9201 89.2184 72.552C87.5865 74.1839 85.6247 74.9999 83.333 74.9999H24.9997L8.33301 91.6666ZM24.9997 58.3332H58.333V49.9999H24.9997V58.3332ZM24.9997 45.8332H74.9997V37.4999H24.9997V45.8332ZM24.9997 33.3333H74.9997V24.9999H24.9997V33.3333Z" fill="#B0C8E4"/>
</g>
</svg>
