<svg width="24" height="24" viewBox="0 0 24 24" fill="none" xmlns="http://www.w3.org/2000/svg">
  <mask id="mask0_414_3778" style="mask-type:alpha" maskUnits="userSpaceOnUse" x="0" y="0" width="24" height="24">
    <rect width="24" height="24" fill="#D9D9D9"/>
  </mask>
  <g mask="url(#mask0_414_3778)">
    <path d="M1.19995 20.3999L12 2.3999L22.8 20.3999H1.19995ZM11.9947 17.3999C12.2482 17.3999 12.4625 17.3142 12.6375 17.1427C12.8125 16.9712 12.9 16.7587 12.9 16.5052C12.9 16.2517 12.8142 16.0374 12.6427 15.8624C12.4712 15.6874 12.2587 15.5999 12.0052 15.5999C11.7517 15.5999 11.5375 15.6857 11.3625 15.8572C11.1875 16.0287 11.1 16.2412 11.1 16.4947C11.1 16.7482 11.1857 16.9624 11.3572 17.1374C11.5287 17.3124 11.7412 17.3999 11.9947 17.3999ZM11.1 14.3999H12.9V9.5999H11.1V14.3999Z" fill="#E69736"/>
  </g>
</svg>